# xmcd
#
# Track frame offsets: 
#        150
#        15389
#        31501
#        49728
#        65152
#        88102
#        105837
#        131595
#        149175
#        173193
#        197458
#        210637
#
# Disc length: 2975 seconds
#
# Revision: 0
# Processed by: cddbd v1.5.2PL0 Copyright (c) Steve Scherf et al.
# Submitted via: ExactAudioCopyFreeDBPlugin 1.0
#
DISCID=a10b9d0c
DTITLE=Darren Watson - Overnight Sensations
DYEAR=2000
DGENRE=New Zealand: Country/Blues
TTITLE0=Nobody's Crying
TTITLE1=Family Tree
TTITLE2=One and One
TTITLE3=Arms Round the Moon
TTITLE4=Take It Or Leave It
TTITLE5=In the Movies
TTITLE6=Sometimes
TTITLE7=Looking for a Place
TTITLE8=Faithful
TTITLE9=Love Isn't Time
TTITLE10=Hard to be Cold
TTITLE11=Face of Fashion
EXTD=
EXTT0=
EXTT1=
EXTT2=
EXTT3=
EXTT4=
EXTT5=
EXTT6=
EXTT7=
EXTT8=
EXTT9=
EXTT10=
EXTT11=
PLAYORDER=
